<svg width="1183" height="77" viewBox="0 0 1183 77" fill="none" xmlns="http://www.w3.org/2000/svg">
<path d="M1.9909 73.5C1.16249 73.5051 0.495003 74.1807 0.500028 75.0091C0.505052 75.8375 1.18069 76.505 2.0091 76.5L1.9909 73.5ZM1182.2 10.9047C1182.7 10.2439 1182.57 9.30317 1181.9 8.80352L1171.14 0.66135C1170.48 0.161708 1169.53 0.292347 1169.04 0.953141C1168.54 1.61393 1168.67 2.55465 1169.33 3.05429L1178.9 10.2918L1171.66 19.8636C1171.16 20.5243 1171.29 21.4651 1171.95 21.9647C1172.61 22.4644 1173.55 22.3337 1174.05 21.6729L1182.2 10.9047ZM2.0091 76.5C3.70796 76.4897 5.40404 76.4793 7.09733 76.4688L7.07876 73.4688C5.38559 73.4793 3.68964 73.4897 1.9909 73.5L2.0091 76.5ZM17.2238 76.4048C20.5883 76.3831 23.9417 76.361 27.2841 76.3386L27.264 73.3386C23.9218 73.3611 20.5687 73.3831 17.2045 73.4048L17.2238 76.4048ZM37.2787 76.2701C40.5994 76.2469 43.9091 76.2234 47.2081 76.1994L47.1863 73.1995C43.8876 73.2234 40.5781 73.247 37.2578 73.2702L37.2787 76.2701ZM57.1149 76.1261C60.5095 76.1005 63.8927 76.0745 67.2644 76.048L67.2409 73.0481C63.8695 73.0746 60.4866 73.1006 57.0923 73.1262L57.1149 76.1261ZM77.3456 75.9675C80.6946 75.9402 84.0323 75.9125 87.3588 75.8844L87.3335 72.8845C84.0073 72.9126 80.6699 72.9403 77.3211 72.9676L77.3456 75.9675ZM97.3048 75.7987C100.609 75.7697 103.902 75.7403 107.184 75.7104L107.157 72.7106C103.875 72.7404 100.582 72.7698 97.2785 72.7988L97.3048 75.7987ZM117.319 75.6165C120.694 75.5847 124.057 75.5523 127.409 75.5195L127.38 72.5197C124.028 72.5525 120.665 72.5848 117.29 72.6167L117.319 75.6165ZM137.429 75.4196C140.758 75.3858 144.075 75.3516 147.381 75.3168L147.349 72.317C144.044 72.3517 140.727 72.386 137.399 72.4198L137.429 75.4196ZM157.263 75.2111C160.651 75.1742 164.027 75.1368 167.391 75.0988L167.357 72.099C163.994 72.137 160.618 72.1744 157.231 72.2113L157.263 75.2111ZM177.478 74.983C180.829 74.9439 184.167 74.9042 187.494 74.8639L187.458 71.8642C184.131 71.9044 180.793 71.9441 177.443 71.9832L177.478 74.983ZM197.438 74.7416C200.749 74.7001 204.048 74.6581 207.335 74.6156L207.296 71.6158C204.009 71.6584 200.711 71.7004 197.401 71.7418L197.438 74.7416ZM217.48 74.4819C220.849 74.4368 224.206 74.391 227.551 74.3447L227.509 71.3449C224.165 71.3913 220.808 71.4371 217.44 71.4822L217.48 74.4819ZM237.549 74.2037C240.87 74.1561 244.178 74.1078 247.475 74.059L247.431 71.0593C244.134 71.1082 240.826 71.1564 237.506 71.204L237.549 74.2037ZM257.458 73.9086C260.843 73.8567 264.216 73.8042 267.575 73.7509L267.528 70.7513C264.169 70.8045 260.797 70.8571 257.412 70.9089L257.458 73.9086ZM277.618 73.5892C280.953 73.5346 284.276 73.4793 287.586 73.4233L287.536 70.4238C284.226 70.4797 280.903 70.535 277.569 70.5896L277.618 73.5892ZM297.482 73.2532C300.863 73.1942 304.231 73.1344 307.587 73.0738L307.532 70.0743C304.177 70.1349 300.81 70.1947 297.429 70.2537L297.482 73.2532ZM317.663 72.889C321.01 72.8266 324.343 72.7634 327.665 72.6995L327.607 69.7C324.286 69.764 320.953 69.8271 317.607 69.8895L317.663 72.889ZM337.592 72.5053C340.94 72.4388 344.275 72.3714 347.599 72.3032L347.537 69.3039C344.215 69.372 340.88 69.4394 337.532 69.5059L337.592 72.5053ZM357.699 72.0927C361.054 72.0216 364.395 71.9497 367.724 71.8769L367.658 68.8777C364.33 68.9504 360.989 69.0223 357.636 69.0933L357.699 72.0927ZM377.672 71.656C381.001 71.5809 384.317 71.505 387.621 71.4281L387.551 68.4289C384.248 68.5057 380.933 68.5817 377.605 68.6568L377.672 71.656ZM397.735 71.189C401.094 71.1083 404.44 71.0267 407.772 70.9441L407.698 67.9451C404.366 68.0276 401.021 68.1092 397.663 68.1898L397.735 71.189ZM417.733 70.6935C421.054 70.6087 424.363 70.5229 427.658 70.436L427.579 67.4371C424.284 67.5239 420.977 67.6097 417.657 67.6945L417.733 70.6935ZM437.776 70.1654C441.135 70.0741 444.482 69.9817 447.816 69.8883L447.732 66.8895C444.399 66.9829 441.053 67.0752 437.694 67.1665L437.776 70.1654ZM457.779 69.6049C461.102 69.5089 464.413 69.4119 467.711 69.3137L467.622 66.315C464.324 66.4132 461.015 66.5102 457.692 66.6062L457.779 69.6049ZM477.821 69.0082C481.178 68.9052 484.522 68.801 487.854 68.6956L487.759 65.6971C484.428 65.8025 481.085 65.9066 477.729 66.0096L477.821 69.0082ZM497.811 68.376C501.144 68.2674 504.465 68.1576 507.774 68.0465L507.673 65.0482C504.366 65.1592 501.046 65.269 497.713 65.3776L497.811 68.376ZM517.867 67.7027C521.219 67.5868 524.558 67.4696 527.884 67.3511L527.777 64.353C524.452 64.4714 521.114 64.5886 517.763 64.7045L517.867 67.7027ZM537.827 66.9917C541.177 66.8688 544.514 66.7446 547.84 66.619L547.726 63.6211C544.402 63.7467 541.066 63.8709 537.717 63.9937L537.827 66.9917ZM557.908 66.2331C561.252 66.1031 564.583 65.9716 567.902 65.8387L567.782 62.8411C564.464 62.974 561.134 63.1054 557.791 63.2354L557.908 66.2331ZM577.823 65.4358C581.194 65.2969 584.553 65.1565 587.899 65.0146L587.772 62.0173C584.427 62.1592 581.07 62.2995 577.7 62.4383L577.823 65.4358ZM597.935 64.5829C601.269 64.4374 604.59 64.2904 607.9 64.1418L607.766 61.1449C604.457 61.2934 601.137 61.4403 597.805 61.5857L597.935 64.5829ZM617.871 63.6879C621.24 63.5324 624.596 63.3752 627.941 63.2164L627.799 60.2198C624.455 60.3785 621.1 60.5357 617.733 60.6911L617.871 63.6879ZM637.941 62.7348C641.263 62.5726 644.573 62.4087 647.873 62.2431L647.723 59.2469C644.424 59.4124 641.115 59.5762 637.795 59.7384L637.941 62.7348ZM657.929 61.7313C661.282 61.5583 664.624 61.3835 667.956 61.2068L667.797 58.211C664.467 58.3876 661.126 58.5624 657.774 58.7353L657.929 61.7313ZM677.917 60.6714C681.258 60.4894 684.588 60.3055 687.907 60.1198L687.739 57.1245C684.421 57.3101 681.093 57.4939 677.754 57.6758L677.917 60.6714ZM697.952 59.5501C701.29 59.3582 704.618 59.1644 707.935 58.9686L707.759 55.9738C704.442 56.1695 701.116 56.3632 697.78 56.555L697.952 59.5501ZM717.88 58.374C721.242 58.1704 724.594 57.9647 727.936 57.7569L727.75 54.7627C724.409 54.9704 721.059 55.176 717.699 55.3795L717.88 58.374ZM737.934 57.1273C741.257 56.9153 744.571 56.7012 747.877 56.485L747.681 53.4914C744.377 53.7075 741.065 53.9215 737.743 54.1333L737.934 57.1273ZM757.911 55.8201C761.255 55.5958 764.59 55.3692 767.917 55.1403L767.711 52.1474C764.386 52.3761 761.052 52.6026 757.71 52.8269L757.911 55.8201ZM777.873 54.447C781.216 54.2114 784.55 53.9734 787.877 53.7332L787.661 50.741C784.336 50.9811 781.003 51.2189 777.662 51.4544L777.873 54.447ZM797.887 53.0015C801.216 52.7552 804.537 52.5065 807.851 52.2555L807.625 49.264C804.312 49.515 800.993 49.7635 797.665 50.0096L797.887 53.0015ZM817.835 51.4903C821.178 51.2311 824.514 50.9694 827.843 50.7053L827.606 47.7147C824.278 47.9787 820.944 48.2402 817.603 48.4993L817.835 51.4903ZM837.813 49.9052C841.142 49.635 844.466 49.3622 847.784 49.0868L847.536 46.0971C844.22 46.3723 840.898 46.645 837.57 46.9151L837.813 49.9052ZM857.787 48.2475C861.116 47.9651 864.439 47.6801 867.758 47.3924L867.499 44.4036C864.182 44.6911 860.86 44.976 857.533 45.2582L857.787 48.2475ZM877.722 46.5194C881.058 46.224 884.389 45.926 887.717 45.6251L887.447 42.6373C884.121 42.938 880.792 43.2359 877.458 43.5311L877.722 46.5194ZM897.687 44.7145C901.011 44.4078 904.331 44.0983 907.647 43.7861L907.366 40.7993C904.051 41.1113 900.733 41.4206 897.411 41.7271L897.687 44.7145ZM917.632 42.8368C920.957 42.5175 924.279 42.1954 927.599 41.8704L927.307 38.8847C923.989 39.2095 920.668 39.5314 917.345 39.8505L917.632 42.8368ZM937.559 40.8864C940.884 40.5547 944.208 40.2201 947.531 39.8825L947.228 36.8979C943.907 37.2352 940.585 37.5697 937.261 37.9012L937.559 40.8864ZM957.495 38.861C960.816 38.5175 964.135 38.1711 967.454 37.8217L967.14 34.8382C963.823 35.1874 960.505 35.5337 957.186 35.8769L957.495 38.861ZM977.414 36.7641C980.734 36.4086 984.053 36.05 987.373 35.6885L987.049 32.7061C983.73 33.0675 980.412 33.4258 977.094 33.7812L977.414 36.7641ZM997.333 34.5949C1000.65 34.228 1003.96 33.8581 1007.28 33.485L1006.94 30.5038C1003.63 30.8767 1000.32 31.2464 997.003 31.6131L997.333 34.5949ZM1017.23 32.3568C1020.55 31.9778 1023.87 31.5956 1027.2 31.2104L1026.85 28.2303C1023.53 28.6154 1020.21 28.9973 1016.89 29.3762L1017.23 32.3568ZM1037.13 30.0503C1040.44 29.6605 1043.76 29.2676 1047.08 28.8715L1046.72 25.8927C1043.4 26.2885 1040.09 26.6812 1036.78 27.0708L1037.13 30.0503ZM1057.04 27.6741C1060.34 27.2746 1063.65 26.872 1066.96 26.4662L1066.59 23.4885C1063.29 23.8941 1059.98 24.2965 1056.68 24.6958L1057.04 27.6741ZM1076.9 25.2395C1080.22 24.8275 1083.54 24.4123 1086.87 23.9939L1086.49 21.0173C1083.17 21.4355 1079.85 21.8506 1076.53 22.2624L1076.9 25.2395ZM1096.77 22.7404C1100.08 22.3197 1103.39 21.8958 1106.7 21.4688L1106.32 18.4934C1103.01 18.9202 1099.7 19.3439 1096.39 19.7644L1096.77 22.7404ZM1116.67 20.1782C1119.96 19.749 1123.26 19.3168 1126.57 18.8813L1126.18 15.907C1122.87 16.3423 1119.57 16.7744 1116.28 17.2033L1116.67 20.1782ZM1136.49 17.5683C1139.8 17.1274 1143.12 16.6834 1146.45 16.2362L1146.05 13.2629C1142.73 13.71 1139.41 14.1538 1136.1 14.5945L1136.49 17.5683ZM1156.36 14.8982C1159.65 14.451 1162.95 14.0007 1166.26 13.5473L1165.85 10.5751C1162.55 11.0283 1159.25 11.4784 1155.95 11.9254L1156.36 14.8982ZM1176.21 12.1777C1177.88 11.9478 1179.54 11.7172 1181.21 11.4857L1180.79 8.51426C1179.13 8.74561 1177.46 8.97617 1175.8 9.20594L1176.21 12.1777Z" fill="#DE7634"/>
</svg>
