<svg width="30" height="30" viewBox="0 0 30 30" fill="none" xmlns="http://www.w3.org/2000/svg">
<path d="M15 30C11.0218 30 7.20644 28.4196 4.3934 25.6066C1.58035 22.7936 0 18.9782 0 15C0 11.0218 1.58035 7.20644 4.3934 4.3934C7.20644 1.58035 11.0218 0 15 0C18.9782 0 22.7936 1.58035 25.6066 4.3934C28.4196 7.20644 30 11.0218 30 15C30 18.9782 28.4196 22.7936 25.6066 25.6066C22.7936 28.4196 18.9782 30 15 30V30ZM21.5625 15.9375C21.8111 15.9375 22.0496 15.8387 22.2254 15.6629C22.4012 15.4871 22.5 15.2486 22.5 15C22.5 14.7514 22.4012 14.5129 22.2254 14.3371C22.0496 14.1613 21.8111 14.0625 21.5625 14.0625H10.7006L14.7262 10.0387C14.8134 9.95159 14.8826 9.84811 14.9297 9.73422C14.9769 9.62033 15.0012 9.49827 15.0012 9.375C15.0012 9.25173 14.9769 9.12967 14.9297 9.01578C14.8826 8.90189 14.8134 8.79841 14.7262 8.71125C14.6391 8.62408 14.5356 8.55494 14.4217 8.50777C14.3078 8.4606 14.1858 8.43632 14.0625 8.43632C13.9392 8.43632 13.8172 8.4606 13.7033 8.50777C13.5894 8.55494 13.4859 8.62408 13.3988 8.71125L7.77375 14.3363C7.68644 14.4233 7.61718 14.5268 7.56991 14.6407C7.52265 14.7546 7.49833 14.8767 7.49833 15C7.49833 15.1233 7.52265 15.2454 7.56991 15.3593C7.61718 15.4732 7.68644 15.5767 7.77375 15.6637L13.3988 21.2887C13.4859 21.3759 13.5894 21.4451 13.7033 21.4922C13.8172 21.5394 13.9392 21.5637 14.0625 21.5637C14.1858 21.5637 14.3078 21.5394 14.4217 21.4922C14.5356 21.4451 14.6391 21.3759 14.7262 21.2887C14.8134 21.2016 14.8826 21.0981 14.9297 20.9842C14.9769 20.8703 15.0012 20.7483 15.0012 20.625C15.0012 20.5017 14.9769 20.3797 14.9297 20.2658C14.8826 20.1519 14.8134 20.0484 14.7262 19.9613L10.7006 15.9375H21.5625Z" fill="#2C3949"/>
</svg>
